<svg width="100" height="100" viewBox="0 0 100 100" fill="none" xmlns="http://www.w3.org/2000/svg">
<path d="M33.9648 77.6172C33.9648 78.0078 33.5156 78.3203 32.9492 78.3203C32.3047 78.3789 31.8555 78.0664 31.8555 77.6172C31.8555 77.2266 32.3047 76.9141 32.8711 76.9141C33.457 76.8555 33.9648 77.168 33.9648 77.6172ZM27.8906 76.7383C27.7539 77.1289 28.1445 77.5781 28.7305 77.6953C29.2383 77.8906 29.8242 77.6953 29.9414 77.3047C30.0586 76.9141 29.6875 76.4648 29.1016 76.2891C28.5938 76.1523 28.0273 76.3477 27.8906 76.7383ZM36.5234 76.4063C35.957 76.543 35.5664 76.9141 35.625 77.3633C35.6836 77.7539 36.1914 78.0078 36.7773 77.8711C37.3438 77.7344 37.7344 77.3633 37.6758 76.9727C37.6172 76.6016 37.0898 76.3477 36.5234 76.4063ZM49.375 1.5625C22.2852 1.5625 1.5625 22.1289 1.5625 49.2188C1.5625 70.8789 15.1953 89.4141 34.668 95.9375C37.168 96.3867 38.0469 94.8438 38.0469 93.5742C38.0469 92.3633 37.9883 85.6836 37.9883 81.582C37.9883 81.582 24.3164 84.5117 21.4453 75.7617C21.4453 75.7617 19.2187 70.0781 16.0156 68.6133C16.0156 68.6133 11.543 65.5469 16.3281 65.6055C16.3281 65.6055 21.1914 65.9961 23.8672 70.6445C28.1445 78.1836 35.3125 76.0156 38.1055 74.7266C38.5547 71.6016 39.8242 69.4336 41.2305 68.1445C30.3125 66.9336 19.2969 65.3516 19.2969 46.5625C19.2969 41.1914 20.7813 38.4961 23.9063 35.0586C23.3984 33.7891 21.7383 28.5547 24.4141 21.7969C28.4961 20.5273 37.8906 27.0703 37.8906 27.0703C41.7969 25.9766 45.9961 25.4102 50.1563 25.4102C54.3164 25.4102 58.5156 25.9766 62.4219 27.0703C62.4219 27.0703 71.8164 20.5078 75.8984 21.7969C78.5742 28.5742 76.9141 33.7891 76.4063 35.0586C79.5313 38.5156 81.4453 41.2109 81.4453 46.5625C81.4453 65.4102 69.9414 66.9141 59.0234 68.1445C60.8203 69.6875 62.3438 72.6172 62.3438 77.207C62.3438 83.7891 62.2852 91.9336 62.2852 93.5352C62.2852 94.8047 63.1836 96.3477 65.6641 95.8984C85.1953 89.4141 98.4375 70.8789 98.4375 49.2188C98.4375 22.1289 76.4648 1.5625 49.375 1.5625ZM20.5469 68.9258C20.293 69.1211 20.3516 69.5703 20.6836 69.9414C20.9961 70.2539 21.4453 70.3906 21.6992 70.1367C21.9531 69.9414 21.8945 69.4922 21.5625 69.1211C21.25 68.8086 20.8008 68.6719 20.5469 68.9258ZM18.4375 67.3437C18.3008 67.5977 18.4961 67.9102 18.8867 68.1055C19.1992 68.3008 19.5898 68.2422 19.7266 67.9688C19.8633 67.7148 19.668 67.4023 19.2773 67.207C18.8867 67.0898 18.5742 67.1484 18.4375 67.3437ZM24.7656 74.2969C24.4531 74.5508 24.5703 75.1367 25.0195 75.5078C25.4687 75.957 26.0352 76.0156 26.2891 75.7031C26.543 75.4492 26.4258 74.8633 26.0352 74.4922C25.6055 74.043 25.0195 73.9844 24.7656 74.2969ZM22.5391 71.4258C22.2266 71.6211 22.2266 72.1289 22.5391 72.5781C22.8516 73.0273 23.3789 73.2227 23.6328 73.0273C23.9453 72.7734 23.9453 72.2656 23.6328 71.8164C23.3594 71.3672 22.8516 71.1719 22.5391 71.4258Z" fill="#FFF1C2"/>
</svg>
