<svg width="100" height="100" viewBox="0 0 100 100" fill="none" xmlns="http://www.w3.org/2000/svg">
<path d="M84.375 6.25H15.625C10.4492 6.25 6.25 10.4492 6.25 15.625V84.375C6.25 89.5508 10.4492 93.75 15.625 93.75H84.375C89.5508 93.75 93.75 89.5508 93.75 84.375V15.625C93.75 10.4492 89.5508 6.25 84.375 6.25ZM53.8672 74.4922C53.8672 83.0078 48.8672 86.8945 41.582 86.8945C35 86.8945 31.1914 83.4961 29.2383 79.375L35.9375 75.332C37.2266 77.6172 38.3984 79.5508 41.2305 79.5508C43.9258 79.5508 45.6445 78.4961 45.6445 74.375V46.4258H53.8672V74.4922ZM73.3203 86.8945C65.6836 86.8945 60.7422 83.2617 58.3398 78.4961L65.0391 74.6289C66.7969 77.5 69.1016 79.6289 73.1445 79.6289C76.543 79.6289 78.7305 77.9297 78.7305 75.5664C78.7305 72.7539 76.5039 71.7578 72.7344 70.0977L70.6836 69.2188C64.7461 66.6992 60.8203 63.5156 60.8203 56.8164C60.8203 50.6445 65.5273 45.957 72.8516 45.957C78.0859 45.957 81.8359 47.7734 84.5312 52.5391L78.125 56.6406C76.7188 54.1211 75.1953 53.125 72.832 53.125C70.4297 53.125 68.9062 54.6484 68.9062 56.6406C68.9062 59.1016 70.4297 60.0977 73.9648 61.6406L76.0156 62.5195C83.0078 65.5078 86.9336 68.5742 86.9336 75.4492C86.9336 82.832 81.1133 86.8945 73.3203 86.8945Z" fill="#FFF1C2"/>
</svg>
