<svg width="81" height="35" viewBox="0 0 81 35" fill="none" xmlns="http://www.w3.org/2000/svg">
<path d="M19.44 25.024C20.336 25.44 21.024 26.032 21.504 26.8C22.016 27.568 22.272 28.4 22.272 29.296C22.272 30.608 21.776 31.76 20.784 32.752C18.8 33.168 16.672 33.488 14.4 33.712C12.128 33.936 10.08 34.048 8.256 34.048C7.488 34.048 6.928 34.032 6.576 34C6 33.968 5.248 33.664 4.32 33.088C3.424 32.512 2.624 31.856 1.92 31.12C1.216 30.352 0.864 29.696 0.864 29.152C0.864 28.576 1.216 26.768 1.92 23.728C2.592 20.88 3.216 17.888 3.792 14.752L4.176 12.64C4.816 9.024 5.408 6.08 5.952 3.808C6.528 1.536 7.104 0.399998 7.68 0.399998C8.288 0.399998 9.104 0.671998 10.128 1.216C11.152 1.76 12.048 2.4 12.816 3.136C13.616 3.872 14.016 4.512 14.016 5.056C14.016 5.376 13.84 6.16 13.488 7.408C13.168 8.624 12.976 9.376 12.912 9.664C11.856 13.408 11.024 16.672 10.416 19.456C10 21.44 9.376 24.096 8.544 27.424C12.288 27.04 15.92 26.24 19.44 25.024ZM46.6084 0.399998C47.2164 0.751999 47.6644 1.248 47.9524 1.888C48.2724 2.496 48.4324 3.168 48.4324 3.904C48.4324 4.544 48.3044 5.184 48.0484 5.824C47.7924 6.464 47.4564 6.992 47.0404 7.408C43.3924 7.472 39.9524 7.632 36.7204 7.888C36.5604 8.56 36.2244 10.048 35.7124 12.352C35.6484 12.64 35.4404 13.648 35.0884 15.376C38.5124 15.088 41.2164 14.704 43.2004 14.224C43.8404 14.608 44.3204 15.12 44.6404 15.76C44.9924 16.368 45.1684 17.04 45.1684 17.776C45.1684 18.448 45.0244 19.088 44.7364 19.696C44.4804 20.272 44.1124 20.736 43.6324 21.088C43.0244 21.152 42.4164 21.2 41.8084 21.232C41.2324 21.264 40.6724 21.296 40.1284 21.328L34.1284 21.76C33.8724 23.392 33.6164 25.328 33.3604 27.568C33.0724 29.968 32.8164 31.648 32.5924 32.608C32.3684 33.536 32.0004 34 31.4884 34C30.6884 34 29.7764 33.728 28.7524 33.184C27.7604 32.608 26.8964 31.952 26.1604 31.216C25.4564 30.448 25.1044 29.824 25.1044 29.344C25.1044 28.864 25.2644 27.808 25.5844 26.176C25.9364 24.544 26.3204 22.784 26.7364 20.896C28.1764 14.688 29.0244 10.432 29.2804 8.128L27.2644 8.272C26.6564 7.952 26.1604 7.488 25.7764 6.88C25.4244 6.24 25.2484 5.552 25.2484 4.816C25.2484 3.536 25.7444 2.4 26.7364 1.408C31.1204 1.344 34.9284 1.248 38.1604 1.12C41.4244 0.991999 44.2404 0.751999 46.6084 0.399998ZM54.0293 34C53.2933 34 52.4133 33.744 51.3893 33.232C50.3973 32.688 49.5173 32.048 48.7493 31.312C48.0133 30.576 47.6453 29.968 47.6453 29.488C47.6133 28.976 47.7573 27.904 48.0773 26.272C48.4293 24.608 48.6533 23.536 48.7493 23.056C48.8773 22.416 49.1173 21.248 49.4693 19.552C49.8213 17.824 50.1093 16.224 50.3333 14.752L50.7173 12.496C51.3253 8.912 51.8853 6 52.3973 3.76C52.9413 1.52 53.4853 0.399998 54.0293 0.399998C54.5733 0.399998 55.3093 0.623998 56.2373 1.072C57.1973 1.52 58.0933 2.096 58.9253 2.8C59.7573 3.472 60.3173 4.112 60.6053 4.72C61.1173 5.872 61.7893 8.336 62.6213 12.112C63.1973 14.736 63.6293 16.544 63.9173 17.536C65.2933 15.456 67.0533 12.272 69.1973 7.984C70.5733 5.264 71.6133 3.328 72.3173 2.176C73.0533 0.991998 73.7093 0.399998 74.2853 0.399998C74.8933 0.399998 75.7093 0.671998 76.7333 1.216C77.7893 1.76 78.7013 2.4 79.4693 3.136C80.2693 3.872 80.6693 4.512 80.6693 5.056C80.6693 5.504 80.4773 6.768 80.0933 8.848C79.7093 10.896 79.4693 12.176 79.3733 12.688L78.1253 19.456C77.8053 21.344 77.4693 23.824 77.1173 26.896C76.7973 29.52 76.5093 31.36 76.2533 32.416C76.0293 33.472 75.6613 34 75.1493 34C74.4133 34 73.5333 33.744 72.5093 33.232C71.5173 32.688 70.6373 32.048 69.8693 31.312C69.1333 30.576 68.7653 29.968 68.7653 29.488C68.7333 29.072 68.8453 28.192 69.1013 26.848C69.3893 25.472 69.7093 23.92 70.0613 22.192C70.3493 20.816 70.5093 20.032 70.5413 19.84L72.2693 14.512L71.5973 14.272L71.1173 15.232C69.8693 17.792 68.8613 19.792 68.0933 21.232C67.3573 22.64 66.7493 23.648 66.2693 24.256C65.9493 24.64 65.3733 24.96 64.5413 25.216C63.7093 25.44 62.8933 25.552 62.0933 25.552C61.2613 25.552 60.7013 25.408 60.4133 25.12C60.1253 24.864 59.8693 24.336 59.6453 23.536C59.4533 22.704 59.1813 21.424 58.8293 19.696C58.7653 19.344 58.5893 18.496 58.3013 17.152C58.0133 15.776 57.6933 14.528 57.3413 13.408L57.0053 19.456C56.6853 21.344 56.3493 23.824 55.9973 26.896C55.6773 29.52 55.3893 31.36 55.1333 32.416C54.9093 33.472 54.5413 34 54.0293 34Z" fill="#FF5F57"/>
</svg>
