<svg width="100" height="100" viewBox="0 0 100 100" fill="none" xmlns="http://www.w3.org/2000/svg">
<path d="M23.5957 35.6563H42.4566V37.1466H25.3246V48.362H41.4352V49.852H25.3246V62.1655H42.6531V63.6555H23.5957V35.6563ZM44.1465 35.6563H46.1504L55.0307 47.9698L64.1074 35.6562L76.4533 20.0156L56.1701 49.264L66.6223 63.6555H64.5396L55.0307 50.558L45.4822 63.6555H43.4391L53.9697 49.2638L44.1465 35.6563ZM67.3688 37.1466V35.6562H88.8625V37.1464H78.9604V63.6553H77.2314V37.1466H67.3688ZM0 35.6562H2.16113L31.9619 79.9845L19.6469 63.6553L1.80742 37.7739L1.72891 63.6557H0L0 35.6562ZM88.6883 61.7154C88.335 61.7154 88.0701 61.4436 88.0701 61.0918C88.0701 60.7404 88.335 60.4682 88.6883 60.4682C89.0457 60.4682 89.3064 60.7402 89.3064 61.0918C89.3064 61.4434 89.0457 61.7154 88.6883 61.7154ZM90.3871 60.0749H91.3123C91.3248 60.5729 91.6906 60.9078 92.2289 60.9078C92.8303 60.9078 93.1709 60.5478 93.1709 59.8739V55.6046H94.1129V59.878C94.1129 61.0918 93.4064 61.7909 92.2373 61.7909C91.1396 61.7909 90.3871 61.1128 90.3871 60.0747V60.0749ZM95.3449 60.0205H96.2785C96.3584 60.5938 96.9219 60.9579 97.7336 60.9579C98.4904 60.9579 99.0455 60.5686 99.0455 60.0329C99.0455 59.5726 98.6922 59.2963 97.8891 59.108L97.1068 58.9197C96.0092 58.6642 95.509 58.1369 95.509 57.2496C95.509 56.1741 96.392 55.4582 97.7166 55.4582C98.9486 55.4582 99.8486 56.1739 99.9033 57.191H98.9865C98.8982 56.6344 98.4103 56.2869 97.7039 56.2869C96.9598 56.2869 96.4637 56.6427 96.4637 57.1867C96.4637 57.6177 96.783 57.8649 97.5736 58.0489L98.2422 58.2122C99.4869 58.5011 100 59.0034 100 59.9116C100 61.0668 99.1002 61.7909 97.6621 61.7909C96.3164 61.7909 95.4121 61.1002 95.3449 60.0203V60.0205Z" fill="#FFF1C2"/>
</svg>
