<svg width="100" height="100" viewBox="0 0 100 100" fill="none" xmlns="http://www.w3.org/2000/svg">
<path d="M92.1484 39.1602C90.6445 33.125 87.793 28.5742 81.7188 28.5742H73.8867V37.832C73.8867 45.0195 67.793 51.0742 60.8398 51.0742H39.9805C34.2773 51.0742 29.5508 55.957 29.5508 61.6797V81.5625C29.5508 87.2266 34.4727 90.5469 39.9805 92.168C46.582 94.1016 52.9297 94.4531 60.8398 92.168C66.0938 90.6445 71.2695 87.5781 71.2695 81.5625V73.6133H50.4297V70.957H81.7188C87.793 70.957 90.0391 66.7188 92.1484 60.3711C94.3359 53.8281 94.2383 47.5391 92.1484 39.1602ZM62.1484 78.9063C64.3164 78.9063 66.0742 80.6836 66.0742 82.8711C66.0742 85.0781 64.3164 86.8555 62.1484 86.8555C60 86.8555 58.2227 85.0586 58.2227 82.8711C58.2422 80.6641 60 78.9063 62.1484 78.9063ZM39.0234 48.457H59.8828C65.6836 48.457 70.3125 43.6719 70.3125 37.8516V17.9492C70.3125 12.2852 65.5469 8.04688 59.8828 7.08985C52.8906 5.93751 45.293 5.9961 39.0234 7.10938C30.1953 8.67188 28.5937 11.9336 28.5937 17.9688V25.918H49.4727V28.5742H20.7617C14.6875 28.5742 9.375 32.2266 7.71484 39.1602C5.80078 47.1094 5.72266 52.0703 7.71484 60.3711C9.19922 66.543 12.7344 70.957 18.8086 70.957H25.9766V61.4258C25.9766 54.5313 31.9336 48.457 39.0234 48.457ZM37.7148 20.6055C35.5469 20.6055 33.7891 18.8281 33.7891 16.6406C33.8086 14.4336 35.5469 12.6563 37.7148 12.6563C39.8633 12.6563 41.6406 14.4531 41.6406 16.6406C41.6406 18.8281 39.8828 20.6055 37.7148 20.6055Z" fill="#FFF1C2"/>
</svg>
