<svg width="100" height="100" viewBox="0 0 100 100" fill="none" xmlns="http://www.w3.org/2000/svg">
<path d="M50 20C36.6715 20 28.3417 26.6668 25.0093 39.9992C30.0079 33.3324 35.8391 30.8332 42.5027 32.4993C46.3051 33.4499 49.0225 36.2105 52.0312 39.2649C56.9311 44.2407 62.6022 49.9994 74.9907 49.9994C88.318 49.9994 96.649 43.3326 99.9802 29.999C94.9828 36.6658 89.1517 39.1661 82.4868 37.5001C78.6857 36.5494 75.9682 33.7889 72.9595 30.7344C68.0596 25.7587 62.3873 20 50 20ZM25.0093 49.9994C11.6821 49.9994 3.35099 56.6662 0.0198059 69.9998C5.0172 63.333 10.8483 60.8326 17.5132 62.4999C21.3144 63.4518 24.0318 66.2111 27.0405 69.2643C31.9404 74.24 37.6128 80 50 80C63.3285 80 71.6583 73.3332 74.9907 59.9996C69.9921 66.6664 64.161 69.1668 57.4974 67.4994C53.6949 66.5501 50.9775 63.7883 47.9688 60.7351C43.0689 55.7593 37.3978 49.9994 25.0093 49.9994Z" fill="#FFF1C2"/>
</svg>
