<svg width="100" height="100" viewBox="0 0 100 100" fill="none" xmlns="http://www.w3.org/2000/svg">
<path d="M23.75 39.9414V62.5586C23.75 65.5664 21.3867 67.9688 18.3789 67.9688C15.3906 67.9688 12.5 65.5469 12.5 62.5586V39.9414C12.5 36.9922 15.3906 34.5703 18.3789 34.5703C21.3281 34.5703 23.75 36.9922 23.75 39.9414ZM25.8594 70.6055C25.8594 73.8086 28.4375 76.3868 31.6406 76.3868H35.5273L35.5859 88.3203C35.5859 95.5274 46.3672 95.4688 46.3672 88.3203V76.3868H53.6328V88.3203C53.6328 95.4883 64.4727 95.5078 64.4727 88.3203V76.3868H68.418C71.582 76.3868 74.1602 73.8086 74.1602 70.6055V35.5664H25.8594V70.6055ZM74.2969 33.6719H25.6445C25.6445 25.3125 30.6445 18.0469 38.0664 14.2578L34.3359 7.36331C33.7891 6.40628 35.1758 5.80081 35.6445 6.62113L39.4336 13.5743C46.25 10.5469 54.082 10.7032 60.5859 13.5743L64.3555 6.64066C64.8438 5.80081 66.2109 6.42581 65.6641 7.38284L61.9336 14.2578C69.2969 18.0469 74.2969 25.3125 74.2969 33.6719ZM40.957 22.8321C40.957 21.7188 40.0586 20.7813 38.9062 20.7813C37.793 20.7813 36.9141 21.7188 36.9141 22.8321C36.9141 23.9453 37.8125 24.8828 38.9062 24.8828C40.0586 24.8828 40.957 23.9453 40.957 22.8321ZM63.1055 22.8321C63.1055 21.7188 62.207 20.7813 61.1133 20.7813C59.9609 20.7813 59.0625 21.7188 59.0625 22.8321C59.0625 23.9453 59.9609 24.8828 61.1133 24.8828C62.207 24.8828 63.1055 23.9453 63.1055 22.8321ZM81.6211 34.5703C78.6719 34.5703 76.25 36.9336 76.25 39.9414V62.5586C76.25 65.5664 78.6719 67.9688 81.6211 67.9688C84.6289 67.9688 87.5 65.5469 87.5 62.5586V39.9414C87.5 36.9336 84.6094 34.5703 81.6211 34.5703Z" fill="#FFF1C2"/>
</svg>
