<svg width="100" height="100" viewBox="0 0 100 100" fill="none" xmlns="http://www.w3.org/2000/svg">
<path d="M66.6016 33.3398C71.0227 33.3398 75.2628 31.5836 78.389 28.4573C81.5152 25.3311 83.2715 21.0911 83.2715 16.6699C83.2715 12.2488 81.5152 8.00872 78.389 4.88251C75.2628 1.75629 71.0227 0 66.6016 0L33.2617 0C28.8432 0 24.6056 1.75526 21.4812 4.87965C18.3568 8.00403 16.6016 12.2416 16.6016 16.6602C16.6016 21.0787 18.3568 25.3163 21.4812 28.4407C24.6056 31.5651 28.8432 33.3203 33.2617 33.3203C28.8406 33.3203 24.6005 35.0766 21.4743 38.2028C18.3481 41.329 16.5918 45.5691 16.5918 49.9902C16.5918 54.4114 18.3481 58.6514 21.4743 61.7777C24.6005 64.9039 28.8406 66.6602 33.2617 66.6602C29.9647 66.6582 26.7412 67.634 23.9988 69.4641C21.2563 71.2942 19.1182 73.8965 17.8547 76.9417C16.5912 79.987 16.2591 83.3386 16.9004 86.5726C17.5418 89.8067 19.1277 92.7779 21.4576 95.1106C23.7876 97.4433 26.757 99.0327 29.9902 99.6778C33.2235 100.323 36.5755 99.9947 39.6222 98.7348C42.669 97.4749 45.2737 95.3398 47.1071 92.5995C48.9404 89.8592 49.9199 86.6368 49.9219 83.3398V33.3398H66.6016ZM66.6016 33.3398C63.3065 33.3398 60.0854 34.3169 57.3457 36.1476C54.6059 37.9782 52.4706 40.5802 51.2096 43.6244C49.9486 46.6687 49.6187 50.0185 50.2615 53.2502C50.9044 56.482 52.4911 59.4505 54.8211 61.7805C57.151 64.1105 60.1196 65.6972 63.3513 66.34C66.5831 66.9829 69.9329 66.6529 72.9771 65.392C76.0214 64.131 78.6233 61.9956 80.454 59.2559C82.2846 56.5161 83.2617 53.2951 83.2617 50C83.2612 45.5816 81.5058 41.3443 78.3815 38.2201C75.2572 35.0958 71.02 33.3404 66.6016 33.3398Z" fill="#FFF1C2"/>
</svg>
