<svg width="100" height="100" viewBox="0 0 100 100" fill="none" xmlns="http://www.w3.org/2000/svg">
<g clip-path="url(#clip0_495_34)">
<path d="M66.7461 61.1133C68.6601 59.8047 71.3164 58.6719 71.3164 58.6719C71.3164 58.6719 63.7578 60.0391 56.2383 60.6641C47.0391 61.4258 37.1562 61.582 32.1953 60.918C20.457 59.3555 38.6406 55.0391 38.6406 55.0391C38.6406 55.0391 31.5898 54.5703 22.8984 58.75C12.6445 63.7109 48.2891 65.9766 66.7461 61.1133ZM50.0664 54.8438C46.3555 46.5039 33.8359 39.1797 50.0664 26.3672C70.3125 10.3906 59.9297 0 59.9297 0C64.1289 16.5039 45.1641 21.5039 38.3086 31.7578C33.6406 38.7695 40.5937 46.2891 50.0664 54.8438ZM72.4492 20.4297C72.4687 20.4297 38.2305 28.9844 54.5781 47.8125C59.4023 53.3594 53.3086 58.3594 53.3086 58.3594C53.3086 58.3594 65.5547 52.0313 59.9297 44.1211C54.6758 36.7383 50.6523 33.0664 72.4492 20.4297ZM71.2578 73.2617C71.1511 73.4478 71.0197 73.6186 70.8672 73.7695C95.9258 67.1875 86.707 50.5469 74.7344 54.7656C74.0877 55.0032 73.529 55.4325 73.1328 55.9961C73.8319 55.7431 74.5504 55.5471 75.2812 55.4102C81.3359 54.1406 90.0273 63.5156 71.2578 73.2617ZM80.4687 85.4297C80.4687 85.4297 83.3008 87.7539 77.3633 89.5703C66.0547 92.9883 30.332 94.0234 20.4102 89.707C16.8359 88.1641 23.5352 85.9961 25.6445 85.5469C27.832 85.0781 29.1016 85.1563 29.1016 85.1563C25.1367 82.3633 3.45703 90.6445 18.0859 93.0078C57.9766 99.4922 90.8203 90.0977 80.4687 85.4297ZM36.8047 77.3438C21.4336 81.6406 46.1602 90.5078 65.7305 82.1289C63.8218 81.3874 61.9793 80.4857 60.2227 79.4336C51.4922 81.0938 47.4492 81.2109 39.5195 80.3125C32.9766 79.5703 36.8047 77.3438 36.8047 77.3438ZM71.9219 96.3281C56.5508 99.2188 37.5859 98.8867 26.3555 97.0313C26.3555 97.0117 28.6602 98.9258 40.4961 99.6875C58.5039 100.84 86.1602 99.043 86.8047 90.5274C86.8047 90.5274 85.5547 93.75 71.9219 96.3281ZM63.4062 68.9453C51.8437 71.1719 45.1445 71.1133 36.6875 70.2344C30.1445 69.5508 34.4219 66.3867 34.4219 66.3867C17.4687 72.0117 43.8359 78.3789 67.5273 71.4453C65.9961 70.9046 64.5931 70.0535 63.4062 68.9453Z" fill="#FFF1C2"/>
</g>
<defs>
<clipPath id="clip0_495_34">
<rect width="100" height="100" fill="white"/>
</clipPath>
</defs>
</svg>
