<svg width="509" height="458" viewBox="0 0 509 458" fill="none" xmlns="http://www.w3.org/2000/svg">
<path d="M303.475 49.4362H53.526V160.525H303.475V49.4362Z" stroke="#FFE7E6" stroke-width="3.6" stroke-miterlimit="10" stroke-linecap="round"/>
<path d="M121.414 49.4362V161.555" stroke="#FFE7E6" stroke-width="3.6" stroke-miterlimit="10"/>
<path d="M213.988 49.4362V161.555" stroke="#FFE7E6" stroke-width="3.6" stroke-miterlimit="10"/>
<path d="M53.526 81.3226H303.476" stroke="#FFE7E6" stroke-width="3.6" stroke-miterlimit="10" stroke-linecap="round"/>
<path d="M63.8125 62.809H105.985" stroke="#FFE7E6" stroke-width="3.6" stroke-miterlimit="10" stroke-linecap="round"/>
<path d="M147.014 62.809H189.187" stroke="#FFE7E6" stroke-width="3.6" stroke-miterlimit="10" stroke-linecap="round"/>
<path d="M63.8125 96.6382H105.985" stroke="#FFE7E6" stroke-width="3.6" stroke-miterlimit="10" stroke-linecap="round"/>
<path d="M63.8125 108.067H105.985" stroke="#FFE7E6" stroke-width="3.6" stroke-miterlimit="10" stroke-linecap="round"/>
<path d="M63.8125 119.496H87.8137" stroke="#FFE7E6" stroke-width="3.6" stroke-miterlimit="10" stroke-linecap="round"/>
<path d="M94.6704 119.496H105.642" stroke="#FFE7E6" stroke-width="3.6" stroke-miterlimit="10" stroke-linecap="round"/>
<path d="M63.8125 128.639H87.8137" stroke="#FFE7E6" stroke-width="3.6" stroke-miterlimit="10" stroke-linecap="round"/>
<path d="M94.6704 128.639H105.642" stroke="#FFE7E6" stroke-width="3.6" stroke-miterlimit="10" stroke-linecap="round"/>
<path d="M142.577 97.0954H193.15" stroke="#FFE7E6" stroke-width="3.6" stroke-miterlimit="10" stroke-linecap="round"/>
<path d="M202.102 92.0662L198.445 97.0954L202.559 101.666" stroke="#FFE7E6" stroke-width="3.6" stroke-miterlimit="10" stroke-linecap="round"/>
<path d="M133.433 92.0662L137.091 97.0954L132.976 101.666" stroke="#FFE7E6" stroke-width="3.6" stroke-miterlimit="10" stroke-linecap="round"/>
<path d="M163.26 116.753C173.224 116.753 183.186 116.753 193.15 116.753" stroke="#FFE7E6" stroke-width="3.6" stroke-miterlimit="10" stroke-linecap="round"/>
<path d="M142.577 116.753C146.064 116.753 149.55 116.753 153.037 116.753" stroke="#FFE7E6" stroke-width="3.6" stroke-miterlimit="10" stroke-linecap="round"/>
<path d="M201.644 126.353L197.988 131.382L202.102 135.954" stroke="#FFE7E6" stroke-width="3.6" stroke-miterlimit="10" stroke-linecap="round"/>
<path d="M229.531 92.0662L225.874 97.0954L229.988 101.666" stroke="#FFE7E6" stroke-width="3.6" stroke-miterlimit="10" stroke-linecap="round"/>
<path d="M285.305 92.0662L288.961 97.0954L284.848 101.666" stroke="#FFE7E6" stroke-width="3.6" stroke-miterlimit="10" stroke-linecap="round"/>
<path d="M140.386 131.382H157.758" stroke="#FFE7E6" stroke-width="3.6" stroke-miterlimit="10" stroke-linecap="round"/>
<path d="M162.786 131.382H173.759" stroke="#FFE7E6" stroke-width="3.6" stroke-miterlimit="10" stroke-linecap="round"/>
<path d="M180.616 131.382H191.13" stroke="#FFE7E6" stroke-width="3.6" stroke-miterlimit="10" stroke-linecap="round"/>
<path d="M236.388 97.0954H246.446" stroke="#FFE7E6" stroke-width="3.6" stroke-miterlimit="10" stroke-linecap="round"/>
<path d="M252.389 98.9242H262.446" stroke="#FFE7E6" stroke-width="3.6" stroke-miterlimit="10" stroke-linecap="round"/>
<path d="M246.904 116.295H288.961" stroke="#FFE7E6" stroke-width="3.6" stroke-miterlimit="10" stroke-linecap="round"/>
<path d="M227.245 132.753H251.017" stroke="#FFE7E6" stroke-width="3.6" stroke-miterlimit="10" stroke-linecap="round"/>
<path d="M257.875 132.753H269.761" stroke="#FFE7E6" stroke-width="3.6" stroke-miterlimit="10" stroke-linecap="round"/>
<path d="M276.161 131.839H293.076" stroke="#FFE7E6" stroke-width="3.6" stroke-miterlimit="10" stroke-linecap="round"/>
<path d="M268.39 100.752H278.447" stroke="#FFE7E6" stroke-width="3.6" stroke-miterlimit="10" stroke-linecap="round"/>
<path d="M268.39 95.2666H278.447" stroke="#FFE7E6" stroke-width="3.6" stroke-miterlimit="10" stroke-linecap="round"/>
<path d="M233.189 110.353L227.245 120.41" stroke="#FFE7E6" stroke-width="3.6" stroke-miterlimit="10" stroke-linecap="round"/>
<path d="M240.96 110.353L235.018 120.41" stroke="#FFE7E6" stroke-width="3.6" stroke-miterlimit="10" stroke-linecap="round"/>
<path d="M238.217 60.9802L230.903 68.2942" stroke="#FFE7E6" stroke-width="3.6" stroke-miterlimit="10" stroke-linecap="round"/>
<path d="M250.56 60.9802L243.246 68.2942" stroke="#FFE7E6" stroke-width="3.6" stroke-miterlimit="10" stroke-linecap="round"/>
<path d="M262.903 60.9802L255.589 68.2942" stroke="#FFE7E6" stroke-width="3.6" stroke-miterlimit="10" stroke-linecap="round"/>
<path d="M275.246 60.9802L267.932 68.2942" stroke="#FFE7E6" stroke-width="3.6" stroke-miterlimit="10" stroke-linecap="round"/>
<path d="M287.59 60.9802L280.276 68.2942" stroke="#FFE7E6" stroke-width="3.6" stroke-miterlimit="10" stroke-linecap="round"/>
<path d="M462.6 167.537H212.651V255.132H462.6V167.537Z" stroke="#FFE7E6" stroke-width="3.6" stroke-miterlimit="10" stroke-linecap="round"/>
<path d="M280.538 167.537V256.394" stroke="#FFE7E6" stroke-width="3.6" stroke-miterlimit="10" stroke-linejoin="round"/>
<path d="M373.112 167.537V256.394" stroke="#FFE7E6" stroke-width="3.6" stroke-miterlimit="10" stroke-linejoin="round"/>
<path d="M212.651 199.424H462.601" stroke="#FFE7E6" stroke-width="3.6" stroke-miterlimit="10" stroke-linecap="round"/>
<path d="M222.937 180.909H265.11" stroke="#FFE7E6" stroke-width="3.6" stroke-miterlimit="10" stroke-linecap="round"/>
<path d="M306.139 180.909H348.312" stroke="#FFE7E6" stroke-width="3.6" stroke-miterlimit="10" stroke-linecap="round"/>
<path d="M222.937 214.739H265.11" stroke="#FFE7E6" stroke-width="3.6" stroke-miterlimit="10" stroke-linecap="round"/>
<path d="M222.937 226.167H265.11" stroke="#FFE7E6" stroke-width="3.6" stroke-miterlimit="10" stroke-linecap="round"/>
<path d="M222.937 237.596H246.938" stroke="#FFE7E6" stroke-width="3.6" stroke-miterlimit="10" stroke-linecap="round"/>
<path d="M253.795 237.596H264.767" stroke="#FFE7E6" stroke-width="3.6" stroke-miterlimit="10" stroke-linecap="round"/>
<path d="M222.937 246.739H246.938" stroke="#FFE7E6" stroke-width="3.6" stroke-miterlimit="10" stroke-linecap="round"/>
<path d="M253.795 246.739H264.767" stroke="#FFE7E6" stroke-width="3.6" stroke-miterlimit="10" stroke-linecap="round"/>
<path d="M301.702 215.196H352.274" stroke="#FFE7E6" stroke-width="3.6" stroke-miterlimit="10" stroke-linecap="round"/>
<path d="M361.226 210.167L357.57 215.196L361.684 219.767" stroke="#FFE7E6" stroke-width="3.6" stroke-miterlimit="10" stroke-linecap="round"/>
<path d="M292.559 210.167L296.215 215.196L292.102 219.767" stroke="#FFE7E6" stroke-width="3.6" stroke-miterlimit="10" stroke-linecap="round"/>
<path d="M322.385 234.853C332.347 234.853 342.311 234.853 352.274 234.853" stroke="#FFE7E6" stroke-width="3.6" stroke-miterlimit="10" stroke-linecap="round"/>
<path d="M301.702 234.853C305.189 234.853 308.676 234.853 312.162 234.853" stroke="#FFE7E6" stroke-width="3.6" stroke-miterlimit="10" stroke-linecap="round"/>
<path d="M388.656 210.167L384.999 215.196L389.113 219.767" stroke="#FFE7E6" stroke-width="3.6" stroke-miterlimit="10" stroke-linecap="round"/>
<path d="M444.43 210.167L448.086 215.196L443.972 219.767" stroke="#FFE7E6" stroke-width="3.6" stroke-miterlimit="10" stroke-linecap="round"/>
<path d="M396.704 214.506H438.763" stroke="#FFE7E6" stroke-width="3.6" stroke-miterlimit="10" stroke-linecap="round"/>
<path d="M416.314 228.453L410.37 238.511" stroke="#FFE7E6" stroke-width="3.6" stroke-miterlimit="10" stroke-linecap="round"/>
<path d="M424.085 228.453L418.142 238.511" stroke="#FFE7E6" stroke-width="3.6" stroke-miterlimit="10" stroke-linecap="round"/>
<path d="M397.342 179.081L390.028 186.395" stroke="#FFE7E6" stroke-width="3.6" stroke-miterlimit="10" stroke-linecap="round"/>
<path d="M409.685 179.081L402.371 186.395" stroke="#FFE7E6" stroke-width="3.6" stroke-miterlimit="10" stroke-linecap="round"/>
<path d="M446.715 179.081L439.401 186.395" stroke="#FFE7E6" stroke-width="3.6" stroke-miterlimit="10" stroke-linecap="round"/>
<path d="M296.183 260.913H46.2336V372.002H296.183V260.913Z" stroke="#FFE7E6" stroke-width="3.6" stroke-miterlimit="10" stroke-linecap="round"/>
<path d="M114.121 260.913V373.031" stroke="#FFE7E6" stroke-width="3.6" stroke-miterlimit="10"/>
<path d="M206.695 260.913V373.031" stroke="#FFE7E6" stroke-width="3.6" stroke-miterlimit="10" stroke-linecap="round"/>
<path d="M46.2336 292.8H296.183" stroke="#FFE7E6" stroke-width="3.6" stroke-miterlimit="10" stroke-linecap="round"/>
<path d="M56.52 274.285H98.6916" stroke="#FFE7E6" stroke-width="3.6" stroke-miterlimit="10" stroke-linecap="round"/>
<path d="M139.722 274.285H181.895" stroke="#FFE7E6" stroke-width="3.6" stroke-miterlimit="10" stroke-linecap="round"/>
<path d="M56.52 308.114H98.6916" stroke="#FFE7E6" stroke-width="3.6" stroke-miterlimit="10" stroke-linecap="round"/>
<path d="M56.52 319.543H98.6916" stroke="#FFE7E6" stroke-width="3.6" stroke-miterlimit="10" stroke-linecap="round"/>
<path d="M56.52 330.972H80.52" stroke="#FFE7E6" stroke-width="3.6" stroke-miterlimit="10" stroke-linecap="round"/>
<path d="M87.3768 330.972H98.3496" stroke="#FFE7E6" stroke-width="3.6" stroke-miterlimit="10" stroke-linecap="round"/>
<path d="M56.52 340.115H80.52" stroke="#FFE7E6" stroke-width="3.6" stroke-miterlimit="10" stroke-linecap="round"/>
<path d="M87.3768 340.115H98.3496" stroke="#FFE7E6" stroke-width="3.6" stroke-miterlimit="10" stroke-linecap="round"/>
<path d="M140.083 308.571H185.856" stroke="#FFE7E6" stroke-width="3.6" stroke-miterlimit="10" stroke-linecap="round"/>
<path d="M126.14 303.542L129.798 308.571L125.683 313.143" stroke="#FFE7E6" stroke-width="3.6" stroke-miterlimit="10" stroke-linecap="round"/>
<path d="M155.968 328.229C165.93 328.229 175.894 328.229 185.857 328.229" stroke="#FFE7E6" stroke-width="3.6" stroke-miterlimit="10" stroke-linecap="round"/>
<path d="M135.283 328.229C138.77 328.229 142.256 328.229 145.744 328.229" stroke="#FFE7E6" stroke-width="3.6" stroke-miterlimit="10" stroke-linecap="round"/>
<path d="M194.352 337.83L190.694 342.858L194.809 347.43" stroke="#FFE7E6" stroke-width="3.6" stroke-miterlimit="10" stroke-linecap="round"/>
<path d="M222.239 303.542L218.581 308.571L222.696 313.143" stroke="#FFE7E6" stroke-width="3.6" stroke-miterlimit="10" stroke-linecap="round"/>
<path d="M278.011 303.542L281.669 308.571L277.554 313.143" stroke="#FFE7E6" stroke-width="3.6" stroke-miterlimit="10" stroke-linecap="round"/>
<path d="M133.093 342.858H150.464" stroke="#FFE7E6" stroke-width="3.6" stroke-miterlimit="10" stroke-linecap="round"/>
<path d="M155.494 342.858H166.465" stroke="#FFE7E6" stroke-width="3.6" stroke-miterlimit="10" stroke-linecap="round"/>
<path d="M173.323 342.858H183.838" stroke="#FFE7E6" stroke-width="3.6" stroke-miterlimit="10" stroke-linecap="round"/>
<path d="M229.096 308.571H239.153" stroke="#FFE7E6" stroke-width="3.6" stroke-miterlimit="10" stroke-linecap="round"/>
<path d="M245.096 310.4H255.154" stroke="#FFE7E6" stroke-width="3.6" stroke-miterlimit="10" stroke-linecap="round"/>
<path d="M239.61 327.773H281.669" stroke="#FFE7E6" stroke-width="3.6" stroke-miterlimit="10" stroke-linecap="round"/>
<path d="M219.953 344.229H243.725" stroke="#FFE7E6" stroke-width="3.6" stroke-miterlimit="10" stroke-linecap="round"/>
<path d="M250.582 344.229H262.468" stroke="#FFE7E6" stroke-width="3.6" stroke-miterlimit="10" stroke-linecap="round"/>
<path d="M268.869 343.315H285.783" stroke="#FFE7E6" stroke-width="3.6" stroke-miterlimit="10" stroke-linecap="round"/>
<path d="M261.096 312.229H271.154" stroke="#FFE7E6" stroke-width="3.6" stroke-miterlimit="10" stroke-linecap="round"/>
<path d="M261.096 306.743H271.154" stroke="#FFE7E6" stroke-width="3.6" stroke-miterlimit="10" stroke-linecap="round"/>
<path d="M225.895 321.829L219.953 331.886" stroke="#FFE7E6" stroke-width="3.6" stroke-miterlimit="10" stroke-linecap="round"/>
<path d="M233.668 321.829L227.724 331.886" stroke="#FFE7E6" stroke-width="3.6" stroke-miterlimit="10" stroke-linecap="round"/>
<path d="M230.924 272.456L223.609 279.77" stroke="#FFE7E6" stroke-width="3.6" stroke-miterlimit="10" stroke-linecap="round"/>
<path d="M243.268 272.456L235.952 279.77" stroke="#FFE7E6" stroke-width="3.6" stroke-miterlimit="10" stroke-linecap="round"/>
<path d="M255.611 272.456L248.296 279.77" stroke="#FFE7E6" stroke-width="3.6" stroke-miterlimit="10" stroke-linecap="round"/>
<path d="M267.954 272.456L260.639 279.77" stroke="#FFE7E6" stroke-width="3.6" stroke-miterlimit="10" stroke-linecap="round"/>
<path d="M280.297 272.456L272.982 279.77" stroke="#FFE7E6" stroke-width="3.6" stroke-miterlimit="10" stroke-linecap="round"/>
<path d="M238.601 324.789C243.443 330.183 249.18 335.191 255.332 339.056C258.931 341.317 262.787 343.123 266.533 345.11C266.618 345.216 266.712 345.313 266.795 345.421C267.997 346.97 269.185 348.824 268.804 350.743C268.35 353.029 265.878 354.323 263.588 354.815C257.518 356.118 248.49 355.395 242.486 353.911C229.954 350.81 217.666 345.393 208.949 335.623C200.094 325.698 196.169 312.674 194.87 299.724C193.508 286.136 192.644 273.81 197.992 260.747C199.558 256.921 201.571 253.164 204.679 250.425C207.787 247.687 212.164 246.108 216.18 247.157C219.829 248.109 222.694 251.094 224.255 254.509C225.816 257.924 226.23 261.745 226.321 265.496C226.562 275.415 226.256 282.039 227.075 292.004C228.008 303.349 231.083 316.416 238.601 324.789Z" fill="#FCE5CA"/>
<path d="M234.901 223.692C232.657 220.836 229.304 213.533 232.975 210.422C233.533 209.949 234.241 209.699 234.942 209.489C237.192 208.814 239.53 208.46 241.777 207.775C245.221 206.725 249.484 205.148 250.309 201.33C251.011 198.08 250.524 194.711 250.973 191.436C239.231 191.155 235.249 179.809 233.754 169.95C232.955 164.682 233.111 159.889 233.602 154.689C234.166 148.716 233.33 142.899 234.487 136.877C234.638 136.088 234.838 135.247 235.436 134.713C236.041 134.174 236.909 134.076 237.715 134.009C245.126 133.386 252.625 133.148 259.968 134.329C266.22 135.333 277.086 137.522 279.754 144.139C282.985 152.153 283.385 160.963 282.893 169.478C282.5 176.258 281.242 182.955 280.861 189.737C280.606 194.295 280.997 199.609 283.482 203.591C284.611 205.4 286.014 206.943 287.942 207.931C290.4 209.189 292.122 207.893 294.031 210.104C295.732 212.076 296.88 215.379 296.318 217.95C295.738 220.605 293.53 222.563 291.355 224.193C285.382 228.677 278.701 232.217 271.637 234.641C268.549 235.7 265.338 236.555 262.075 236.497C257.742 236.42 253.616 234.749 249.619 233.073C245.239 231.237 240.791 229.315 237.238 226.165C236.393 225.419 235.606 224.588 234.901 223.692Z" fill="#FCE5CA"/>
<path d="M343.985 258.633C342.623 241.902 335.09 224.779 319.77 216.413C310.406 211.298 300.242 209.801 290.012 207.405C289.712 207.335 289.393 207.265 289.102 207.367C288.702 207.506 288.479 207.918 288.284 208.292C283.398 217.687 272.83 223.86 262.2 223.527C251.152 223.182 242.711 216.468 236.904 207.677C229.373 210.175 221.878 213.044 215.292 217.454C193.804 231.848 192.432 262.188 189.656 285.44C192.559 285.53 224.044 290.741 223.855 289.814C224.798 294.457 223.962 293.735 224.15 298.367C224.498 306.915 225.134 315.45 225.901 323.971C226.775 333.668 228.272 343.195 230.447 352.627C252.546 359.946 277.763 358.163 301.46 356.037C308.218 355.431 315.228 354.747 321.071 351.319C337.512 341.673 338.212 313.17 340.559 296.58C342.373 283.747 345.052 271.739 343.985 258.633Z" fill="#FF5F57"/>
<path d="M178.514 424.249C178.046 420.432 180.234 416.045 183.502 413.622C188.026 410.268 193.852 409.397 199.216 407.682C205.247 405.753 210.839 402.684 216.63 400.123C222.421 397.561 228.607 395.473 234.935 395.7C241.264 395.927 247.787 398.844 250.952 404.329C253.608 408.93 253.033 414.645 249.94 418.838C246.78 423.119 243.064 422.185 238.133 422.726C229.261 423.701 220.7 426.344 212.304 429.267C203.305 432.401 196.825 433.663 187.256 431.558C184.715 430.999 182.078 430.176 180.324 428.256C179.267 427.101 178.694 425.718 178.514 424.249Z" fill="black"/>
<path d="M209.138 421.622C210.018 423.763 211.223 425.769 212.699 427.553C213.023 427.944 213.408 428.352 213.913 428.406C214.964 428.52 215.474 427.172 215.626 426.126C215.98 423.668 216.334 421.212 216.688 418.754C218.117 420.263 219.29 422.013 220.142 423.909C220.654 425.047 221.293 426.429 222.536 426.536C224.051 426.666 224.869 424.836 225.229 423.36C225.88 420.692 226.53 418.023 227.181 415.356" stroke="#FF5F57" stroke-width="1.2" stroke-miterlimit="10" stroke-linecap="round" stroke-linejoin="round"/>
<path d="M122.566 327.191C127.403 321.864 134.29 318.416 141.355 317.1C151.267 315.254 161.506 317.043 171.229 319.706C191.83 325.347 211.147 334.857 231.856 340.149C241.038 342.495 247.025 341.625 256 340.905C267.378 339.992 279.06 341.107 290.509 340.434C301.211 339.804 312.792 338.981 322.793 341.912C324.114 341.049 325.43 340.184 326.743 339.327C337.933 332.027 349.079 324.756 363.112 327.415C374.144 329.505 384.782 335.069 391.616 344.101C398.876 353.696 396.697 366.224 390.192 375.791C384.806 383.711 376.847 389.539 368.603 394.458C340.164 411.423 309.102 421.821 275.542 419.504C271.05 419.193 265.754 419.144 262.519 422.731C261.302 424.08 260.597 431.473 257.897 431.154C254.574 430.761 248.173 429.836 245.033 428.708C228.076 422.616 211.117 416.523 194.16 410.432C179.261 405.079 164.252 399.675 150.679 391.554C138.94 384.53 128.306 375.029 122.072 362.72C117.578 353.846 113.888 342.153 118.582 332.935C119.654 330.83 121.003 328.913 122.566 327.191Z" fill="#262626"/>
<path d="M333.042 352.697C316.164 361.087 298.343 366.548 281.192 374.24C274.751 377.129 268.309 380.017 261.868 382.907C258.227 384.54 254.585 386.173 251.002 387.931" stroke="black" stroke-width="1.2" stroke-miterlimit="10" stroke-linecap="round" stroke-linejoin="round"/>
<path d="M315.881 435.75C310.838 427.803 303.004 421.483 298.649 413.274C297.725 411.533 296.899 409.692 295.518 408.282C293.047 405.756 288.296 406.094 284.995 405.705C280.487 405.173 275.978 404.641 271.47 404.108C271.171 404.073 270.856 404.041 270.582 404.166C270.575 404.169 270.571 404.178 270.564 404.181C269.612 407.687 267.516 410.892 265.894 414.092C264.938 415.976 262.145 423.027 261.766 424.146C263.614 425.532 267.628 426.817 270.167 427.764C275.578 429.782 281.124 431.88 285.439 435.719C288.623 438.551 290.964 442.183 293.378 445.694C295.793 449.205 298.39 452.709 301.906 455.115C305.422 457.521 310.06 458.677 314.02 457.105C322.6 453.701 319.606 441.619 315.881 435.75Z" fill="black"/>
<path d="M245.305 357.153C244.076 356.535 243.142 355.439 242.411 353.358C241.188 349.877 241.906 345.75 243.875 342.681C246.643 338.366 251.491 335.745 256.453 334.383C261.415 333.021 266.602 332.747 271.702 332.059C280.344 330.895 288.821 328.523 296.806 325.034C300.623 323.366 304.469 321.329 306.924 317.977C309.631 314.281 310.272 309.523 310.83 304.985C311.66 298.225 312.491 291.465 313.321 284.705C314.042 278.833 314.816 272.796 317.688 267.615C320.56 262.435 326.069 258.247 331.998 258.719C337.056 259.121 341.371 262.818 343.86 267.216C347.912 274.376 349.895 285.236 351.134 293.336C352.529 302.444 351.618 311.755 349.949 320.762C347.779 332.472 341.238 342.447 330.679 348.306C307.033 361.428 276.852 360.571 250.728 358.151C248.459 357.941 246.694 357.852 245.305 357.153Z" fill="#FCE5CA"/>
<path d="M254.387 128.577C251.54 128.802 248.67 128.829 245.818 128.768C240.815 128.66 235.278 128.451 231.442 131.665C228.943 133.758 227.618 137.169 228.05 140.4C228.482 143.63 230.656 146.574 233.616 147.937C241.519 151.577 257.188 140.12 261.377 150.308C263.024 154.316 262.409 157.711 265.614 161.123C268.199 163.873 271.616 164.945 272.986 168.847C274.052 171.89 274.537 175.225 276.437 177.932C276.923 178.625 277.478 179.264 278.034 179.904C279.022 181.04 279.967 182.185 281.034 183.24C284.918 180.462 289.805 181.272 292.483 176.103C293.04 175.029 293.436 173.84 294.268 172.962C296.135 170.989 299.803 170.97 300.866 168.47C301.892 166.057 299.567 163.473 299.651 160.853C299.749 157.781 303.089 155.51 303.094 152.436C303.101 148.284 297.419 146.503 295.948 142.62C293.971 137.402 296.227 135.217 291.74 131.213C283.709 124.046 273.265 124.267 263.546 127.013C260.557 127.857 257.486 128.334 254.387 128.577Z" fill="black"/>
<path d="M259.612 161.126L269.396 158.477C270.677 158.13 272.046 158.435 273.059 159.293L277.111 162.728" stroke="#515151" stroke-width="2.4" stroke-miterlimit="10" stroke-linecap="round" stroke-linejoin="round"/>
<path d="M168.763 336.266C187.854 344.852 203.217 359.768 220.599 371.403C236.832 382.269 254.804 390.252 272.675 398.179C271.741 400.217 271.362 402.225 270.428 404.263" stroke="black" stroke-width="1.2" stroke-miterlimit="10" stroke-linecap="round" stroke-linejoin="round"/>
<path d="M250.322 174.199C249.181 177.902 244.631 180.151 240.974 178.819" stroke="#1C1C1B" stroke-width="1.2" stroke-miterlimit="10" stroke-linecap="round" stroke-linejoin="round"/>
<path d="M269.585 173.123C276.621 174.873 281.003 167.498 278.864 162.689C275.887 155.995 266.448 157.106 264.721 164.142" fill="#FCE5CA"/>
<path d="M273.187 162.122C271.863 161.76 270.336 161.977 269.228 162.686C268.121 163.395 267.463 164.575 267.525 165.745" stroke="#1C1C1B" stroke-width="1.2" stroke-miterlimit="10" stroke-linecap="round" stroke-linejoin="round"/>
<path d="M305.228 299.799C310.35 298.238 315.668 297.378 320.964 296.636C326.581 295.85 332.183 295.079 337.77 294.087C342.977 293.165 348.181 292.227 353.383 291.279C352.919 286.939 352.414 282.602 351.808 278.279C348.96 257.961 343.634 238.28 329.123 223.701L302.834 247.704C305.563 258.521 305.239 289.619 305.228 299.799Z" fill="#FF5F57"/>
<path d="M305.078 367.586H196.847C195.262 367.586 193.976 366.308 193.976 364.733C193.976 363.156 195.262 361.879 196.847 361.879H305.078C306.664 361.879 307.948 363.157 307.948 364.733C307.949 366.308 306.664 367.586 305.078 367.586Z" fill="black"/>
<path d="M289.024 363.715H194.299L174.624 315.393C173.983 313.82 175.147 312.102 176.855 312.102H266.387C267.367 312.102 268.249 312.693 268.618 313.597L289.024 363.715Z" fill="black"/>
<path d="M221.852 337.94C222.859 340.557 226.256 342.68 229.44 342.68C232.624 342.68 234.388 340.559 233.381 337.94" fill="white"/>
<path d="M223.853 289.813C223.052 278.502 223.102 262.017 223.789 250.699L223.853 289.813Z" fill="#EE7273"/>
<path d="M223.853 289.813C223.052 278.502 223.102 262.017 223.789 250.699" stroke="black" stroke-width="1.2" stroke-miterlimit="10" stroke-linecap="round" stroke-linejoin="round"/>
<path d="M250.764 190.749L250.517 191.346C250.763 193.017 250.644 194.684 250.378 196.349C250.792 196.244 251.207 196.145 251.615 196.02C255.337 194.874 258.42 191.852 259.979 188.301C257.168 189.847 253.974 190.695 250.764 190.749Z" fill="black"/>
<path d="M310.386 297.919C311.106 282.811 309.09 271.553 305.995 256.748L310.386 297.919Z" fill="#EE7273"/>
<path d="M310.386 297.919C311.106 282.811 309.09 271.553 305.995 256.748" stroke="black" stroke-width="1.2" stroke-miterlimit="10" stroke-linecap="round" stroke-linejoin="round"/>
<path d="M241.127 160.88C241.127 164.828 237.926 168.027 233.98 168.027C230.032 168.027 226.831 164.827 226.831 160.88C226.831 156.932 230.032 153.733 233.98 153.733C237.926 153.732 241.127 156.932 241.127 160.88Z" stroke="#515151" stroke-width="2.4" stroke-miterlimit="10" stroke-linecap="round" stroke-linejoin="round"/>
<path d="M259.612 161.126C259.612 165.074 256.411 168.273 252.464 168.273C248.516 168.273 245.317 165.073 245.317 161.126C245.317 157.178 248.518 153.979 252.464 153.979C256.411 153.979 259.612 157.178 259.612 161.126Z" stroke="#515151" stroke-width="2.4" stroke-miterlimit="10" stroke-linecap="round" stroke-linejoin="round"/>
<path d="M241.127 160.88L245.316 161.126" stroke="#515151" stroke-width="2.4" stroke-miterlimit="10" stroke-linecap="round" stroke-linejoin="round"/>
<path d="M276.655 421.973C274.943 425.367 273.767 429.033 273.182 432.791C273.128 433.14 273.085 433.523 273.272 433.823C273.612 434.366 274.43 434.27 275.024 434.029C278.528 432.601 280.832 428.511 284.608 428.239C283.859 432.056 280.748 435.385 281.136 439.255C281.172 439.614 281.251 439.994 281.51 440.245C281.898 440.621 282.526 440.562 283.042 440.407C285.881 439.554 287.693 436.699 290.419 435.537C291.115 435.241 292.085 435.143 292.481 435.787C292.794 436.297 292.541 436.952 292.284 437.493C291.07 440.054 289.855 442.614 288.641 445.175" stroke="#FF5F57" stroke-width="1.2" stroke-miterlimit="10" stroke-linecap="round" stroke-linejoin="round"/>
<path d="M370.666 296.418C372.157 300.577 373.649 304.898 374.867 308.484C376.555 313.448 381.191 316.802 386.434 316.853L439.892 317.358C445.742 317.413 450.827 313.353 452.068 307.635L455.612 291.299C457.344 283.319 450.988 275.888 442.836 276.363L381.562 279.933C373.337 280.412 367.885 288.661 370.666 296.418Z" fill="#FF5F57"/>
<path d="M431.226 251.276C431.191 251.798 431.148 252.32 431.089 252.841C430.636 256.88 429.181 260.639 426.832 263.953C424.351 267.452 421.044 270.359 417.666 272.966C411.448 277.766 404.299 281.9 396.758 284.335C395.365 285.765 394.871 287.371 397.643 288.567C399.91 289.545 402.305 290.226 404.747 290.585C406.712 290.873 408.769 290.945 410.636 290.265C412.416 289.619 413.885 288.343 415.309 287.094C421.129 281.991 427.637 276.397 430.88 269.159C431.105 268.657 431.315 268.148 431.507 267.63C433.24 262.968 433.303 256.38 431.226 251.276Z" fill="#FF5F57"/>
<path d="M381.59 293.394L439.187 291.696" stroke="#1D1D1B" stroke-width="1.2" stroke-miterlimit="10"/>
<path d="M384.294 305.414L392.248 298.989L399.442 304.74L409.558 298.219L416.358 304.854L427.301 297.428L434.14 304.929L440.717 296.831" stroke="#1D1D1B" stroke-width="1.2" stroke-miterlimit="10"/>
<path d="M108.732 171.6H167.182C177.23 171.6 185.376 179.594 185.376 189.456V206.198C185.376 215.951 177.402 223.899 167.466 224.052L112.975 224.887C104.334 225.019 96.7909 219.168 94.9261 210.887L90.9673 193.309C88.4569 182.163 97.1017 171.6 108.732 171.6Z" fill="#FF5F57"/>
<path d="M151.679 198.413C149.43 213.602 151.789 229.421 158.378 243.341C141.436 237.908 130.417 218.755 134.429 201.711" fill="#FF5F57"/>
<path d="M106.309 197.466L114.943 191.222L122.214 197.466L133.12 191.222L139.936 198.357L151.75 191.222L158.566 199.249L165.836 191.222" stroke="#1D1D1B" stroke-width="1.2" stroke-miterlimit="10"/>
<path d="M107.219 207.723L166.745 205.939" stroke="#1D1D1B" stroke-width="1.2" stroke-miterlimit="10"/>
<path d="M362.471 67.1614L362.988 89.9398C363.198 99.2026 370.955 106.499 380.213 106.142L445.874 103.616C454.162 103.297 460.94 96.9094 461.749 88.6558L464.54 60.1918C465.575 49.645 456.59 40.8442 446.066 42.0982L377.096 50.3086C368.608 51.319 362.276 58.615 362.471 67.1614Z" fill="#FF5F57"/>
<path d="M385.183 117.216C379.243 125.538 368.572 128.719 358.696 131.367C371.076 131.954 383.587 129.603 394.91 124.562C396.926 123.665 398.957 122.646 400.445 121.016C402.19 119.106 403.016 116.55 403.72 114.057C407.069 102.18 409.573 88.5334 408.403 76.1422C407.519 66.7786 399.77 55.9666 390.275 68.0566C381.433 79.3126 395.76 102.399 385.183 117.216Z" fill="#FF5F57"/>
<path d="M384.09 77.7826L391.963 71.9818L398.594 77.7826L408.539 71.9818L414.755 78.6118L425.53 71.9818L431.744 79.441L438.376 71.9818" stroke="#1D1D1B" stroke-width="1.2" stroke-miterlimit="10"/>
<path d="M383.262 63.2794L442.105 61.6222" stroke="#1D1D1B" stroke-width="1.2" stroke-miterlimit="10"/>
<path d="M383.676 86.899H441.69" stroke="#1D1D1B" stroke-width="1.2" stroke-miterlimit="10"/>
<path d="M150.568 29.5174L138.136 4.6546L94.272 29.5174H150.568Z" fill="#FFCDCB"/>
<path d="M491.504 186.779C497.684 186.779 502.693 181.769 502.693 175.59C502.693 169.41 497.684 164.401 491.504 164.401C485.325 164.401 480.316 169.41 480.316 175.59C480.316 181.769 485.325 186.779 491.504 186.779Z" fill="#FFCDCB"/>
<path d="M68.9064 384.44C73.9267 384.44 77.9964 380.347 77.9964 375.297C77.9964 370.248 73.9267 366.155 68.9064 366.155C63.8861 366.155 59.8164 370.248 59.8164 375.297C59.8164 380.347 63.8861 384.44 68.9064 384.44Z" fill="#FFCDCB"/>
<path d="M369.364 18.3298C374.17 18.3298 378.066 14.4336 378.066 9.62742C378.066 4.82121 374.17 0.925018 369.364 0.925018C364.557 0.925018 360.661 4.82121 360.661 9.62742C360.661 14.4336 364.557 18.3298 369.364 18.3298Z" fill="#FFCDCB"/>
<path d="M426.548 398.616H378.823V418.317H426.548V398.616Z" fill="#CC4C46"/>
<path d="M33.0768 238H6V250.515H33.0768V238Z" fill="#FFCDCB"/>
<path d="M64.7893 238.791H37.7125V251.306H64.7893V238.791Z" fill="#FFCDCB"/>
<path d="M44.0768 218H17V230.515H44.0768V218Z" fill="#FFCDCB"/>
<path d="M50.0768 258H23V270.515H50.0768V258Z" fill="#FFCDCB"/>
<path d="M60.0768 198.923H33V211.437H60.0768V198.923Z" fill="#FFCDCB"/>
<path d="M75.7872 189.264H0.765625V279.159H75.7872V189.264Z" stroke="#0E1222" stroke-width="1.2" stroke-miterlimit="10"/>
<path d="M259.956 14.9362H231.883V26.6159H259.956V14.9362Z" fill="#FFCDCB"/>
<path d="M294.148 14.9362H266.075V26.6159H294.148V14.9362Z" fill="#FFCDCB"/>
<path d="M276.151 31.5586H248.078V43.2382H276.151V31.5586Z" fill="#FFCDCB"/>
<path d="M311.063 31.1098H282.99V42.7894H311.063V31.1098Z" fill="#FFCDCB"/>
<path d="M328.339 14.9362H300.266V26.6159H328.339V14.9362Z" fill="#FFCDCB"/>
<path d="M337.896 5.34821H227.723V55.3618H337.896V5.34821Z" stroke="#0E1222" stroke-width="1.2" stroke-miterlimit="10"/>
<path d="M497.503 358.407H472.957V371.526H497.503V358.407Z" fill="#FFCDCB"/>
<path d="M467.692 358.81H443.146V371.928H467.692V358.81Z" fill="#FFCDCB"/>
<path d="M435.965 359.618H411.419V372.737H435.965V359.618Z" fill="#FFCDCB"/>
<path d="M482.44 339.645H457.894V352.764H482.44V339.645Z" fill="#FFCDCB"/>
<path d="M451.901 339.979H427.355V353.097H451.901V339.979Z" fill="#FFCDCB"/>
<path d="M507.578 331.473H403.638V381.487H507.578V331.473Z" stroke="#0E1222" stroke-width="1.2" stroke-miterlimit="10"/>
<path d="M483.113 151.347L486.842 119.025L442.979 143.888L483.113 151.347Z" stroke="#CC4C46" stroke-width="2.4" stroke-miterlimit="10" stroke-linecap="round" stroke-linejoin="round"/>
<path d="M55.3693 390.511L94.8481 413.851L115.04 390.511H55.3693Z" stroke="#CC4C46" stroke-width="2.4" stroke-miterlimit="10" stroke-linecap="round" stroke-linejoin="round"/>
<path d="M162.999 14.9782C162.999 8.22461 168.843 2.75021 176.052 2.75021C183.262 2.75021 189.106 8.22461 189.106 14.9782" stroke="#CC4C46" stroke-width="2.4" stroke-miterlimit="10" stroke-linecap="round" stroke-linejoin="round"/>
<path d="M46.8552 155.772H12.858V176.211H46.8552V155.772Z" stroke="#CC4C46" stroke-width="2.4" stroke-miterlimit="10" stroke-linecap="round" stroke-linejoin="round"/>
<path d="M476.338 301.064C480.586 301.064 484.028 304.507 484.028 308.755C484.028 313.003 480.586 316.446 476.338 316.446" stroke="#CC4C46" stroke-width="2.4" stroke-miterlimit="10" stroke-linecap="round" stroke-linejoin="round"/>
<path d="M324.833 113.006C329.41 113.006 333.12 116.717 333.12 121.293C333.12 125.87 329.41 129.581 324.833 129.581" stroke="#CC4C46" stroke-width="2.4" stroke-miterlimit="10" stroke-linecap="round" stroke-linejoin="round"/>
</svg>
