<svg width="229" height="80" viewBox="0 0 229 80" fill="none" xmlns="http://www.w3.org/2000/svg">
<path fill-rule="evenodd" clip-rule="evenodd" d="M97.7556 33.4518C98.574 35.9811 99.895 38.2816 101.596 40.2406C99.8338 38.7102 97.7846 37.4922 95.5453 36.6803C95.3487 36.6062 95.149 36.5385 94.946 36.4741C94.5142 37.0154 94.1018 37.5728 93.7119 38.1463C93.6249 38.2752 93.5379 38.4041 93.451 38.5362C93.4445 38.5426 93.4445 38.5491 93.4381 38.5555C93.4123 38.5974 93.3833 38.6393 93.3543 38.6844C90.5801 42.9697 88.9659 48.0799 88.9659 53.567C88.9659 48.1024 87.3677 43.0148 84.6129 38.7392C84.5742 38.678 84.5323 38.6167 84.4937 38.5555C84.4034 38.417 84.3132 38.2816 84.2198 38.1463C83.8299 37.5728 83.4175 37.0154 82.9857 36.4741C82.7956 36.5353 82.6088 36.5997 82.4187 36.6674C80.1664 37.4826 78.1076 38.7037 76.3354 40.2406C78.0399 38.2816 79.3577 35.9811 80.1761 33.4518C78.6811 32.0663 77.0282 30.8452 75.2496 29.8206L63.8242 38.3332C65.0003 41.0429 66.6048 43.5239 68.5477 45.6923C69.2888 46.5172 70.0782 47.2969 70.9095 48.0251C71.0448 48.1443 71.1802 48.2603 71.3155 48.3763C71.5539 48.5793 71.7988 48.7758 72.0437 48.9692C73.4291 50.0582 74.9242 51.0152 76.5062 51.8239C78.0592 50.2483 79.435 48.502 80.6111 46.6139C79.9087 48.6566 79.406 50.7896 79.1289 52.9967C82.1738 54.1695 85.4828 54.8107 88.9401 54.814H88.9949C92.4779 54.8107 95.8127 54.1567 98.8769 52.9677C98.6127 50.8702 98.1423 48.8306 97.4882 46.8781C98.6256 48.6663 99.9466 50.3224 101.426 51.8239C103.014 51.0152 104.512 50.0518 105.901 48.9595C106.143 48.7694 106.381 48.5729 106.616 48.3763C106.623 48.3731 106.626 48.3666 106.632 48.3634C106.764 48.2539 106.893 48.1411 107.022 48.0251C107.857 47.2969 108.643 46.5172 109.384 45.6923C111.327 43.5239 112.931 41.0429 114.108 38.3332L102.682 29.8206C100.904 30.8452 99.2539 32.0663 97.7556 33.4518Z" fill="white" fill-opacity="0.4"/>
<path fill-rule="evenodd" clip-rule="evenodd" d="M88.4671 0C85.0002 0.00322204 81.6847 0.654075 78.6302 1.83334C78.9008 3.96634 79.3809 6.03489 80.0511 8.01967C78.9008 6.19921 77.5605 4.51086 76.0558 2.98361C74.4673 3.79557 72.969 4.75574 71.5771 5.85123C71.3355 6.04133 71.0938 6.23788 70.8554 6.43764C70.72 6.55364 70.5847 6.66963 70.4494 6.78885C69.6181 7.52025 68.8287 8.29676 68.0876 9.12161C66.1512 11.2868 64.5498 13.7581 63.3738 16.4582L74.9828 25.1158C76.7098 24.0977 78.3144 22.8958 79.774 21.5394C78.9588 18.9424 77.6184 16.5806 75.8753 14.5765C77.6442 16.1102 79.6967 17.3282 81.9424 18.1401C82.1809 18.2271 82.4257 18.3109 82.6706 18.3882C83.0702 17.8791 83.4504 17.3572 83.8112 16.8223C83.9208 16.6612 84.0271 16.4969 84.1334 16.3358C84.1592 16.2939 84.185 16.2552 84.2108 16.2133C86.9302 11.9602 88.5058 6.90162 88.5058 1.47892C88.5058 6.90162 90.0813 11.9602 92.8007 16.2133C92.8265 16.2552 92.8523 16.2939 92.8781 16.3358C92.9908 16.5098 93.1068 16.6837 93.2228 16.8545C93.5773 17.3765 93.951 17.892 94.3441 18.3882C94.589 18.3109 94.8306 18.2271 95.0691 18.1401C97.3148 17.3282 99.3673 16.1102 101.136 14.5765C99.3963 16.5806 98.0527 18.9424 97.2375 21.5394C98.7035 22.9023 100.315 24.1073 102.051 25.1255L113.647 16.4808C112.471 13.7742 110.867 11.29 108.924 9.12161C108.183 8.29676 107.397 7.52025 106.562 6.78885C106.427 6.66963 106.291 6.55364 106.156 6.43764C105.918 6.23788 105.679 6.04133 105.434 5.85123C104.049 4.76218 102.557 3.80201 100.975 2.99328C99.4478 4.54953 98.0913 6.26688 96.9282 8.11955C97.6145 6.10577 98.1075 4.005 98.3813 1.83334C95.33 0.654075 92.0113 0.00322204 88.5444 0L88.4671 0Z" fill="white" fill-opacity="0.4"/>
<path d="M189.38 35.4296H183.584C183.584 35.4296 189.76 34.5339 192.187 28.8244L198.076 14.9761L206.612 35.4296H189.38ZM205.323 0H190.588L167.158 54.7522H181.167L184.789 46.217H211.2L213.162 50.947C214.119 53.2507 216.368 54.7522 218.862 54.7522H228.834L205.323 0Z" fill="white" fill-opacity="0.4"/>
<path d="M164.738 0L152.272 28.8566C149.172 36.0257 149.665 43.6201 149.665 43.6201L145.229 33.1452L130.842 0H116.266L138.878 51.0791C139.864 53.312 142.077 54.7522 144.52 54.7522H154.998L179.315 0H164.738Z" fill="white" fill-opacity="0.4"/>
<path d="M41.2223 0V33.4158L13.5224 0H0.237854V54.7522H13.5224V30.5128C13.5224 25.1803 9.77834 16.2939 9.77834 16.2939L17.5177 26.0857L39.3729 52.5161C40.5425 53.9338 42.2888 54.7522 44.1286 54.7522H54.5068V0H41.2223Z" fill="white" fill-opacity="0.4"/>
<path d="M18.8353 79.842V77.8153H22.2732C23.3945 77.8153 24.2644 77.5254 24.8798 76.9422C25.4952 76.3622 25.8046 75.5406 25.8046 74.4805V70.0083C25.8046 68.9483 25.4952 68.1299 24.8798 67.5467C24.2644 66.9667 23.3945 66.6767 22.2732 66.6767H18.8353V64.6468H22.212C24.0518 64.6468 25.4695 65.1269 26.4812 66.0742C27.4865 67.0279 27.9891 68.3651 27.9891 70.0953V74.4C27.9891 75.547 27.7636 76.5297 27.3125 77.3385C26.8582 78.1537 26.1976 78.7723 25.3341 79.2008C24.4706 79.6294 23.4267 79.842 22.1991 79.842H18.8353ZM17.3918 79.842V64.6468H19.5248V79.842H17.3918ZM34.6716 79.842V64.6468H36.8046V79.842H34.6716ZM35.7059 79.842V77.8153H44.4344V79.842H35.7059ZM35.7059 73.3109V71.2843H43.2842V73.3109H35.7059ZM35.7059 66.6767V64.6468H44.4344V66.6767H35.7059ZM54.2971 79.842L49.3416 64.6468H51.6615L55.3088 76.562L58.953 64.6468H61.2761L56.3206 79.842H54.2971ZM67.0178 79.842V64.6468H69.1508V79.842H67.0178ZM68.0521 79.842V77.8153H76.7806V79.842H68.0521ZM68.0521 73.3109V71.2843H75.6271V73.3109H68.0521ZM68.0521 66.6767V64.6468H76.7806V66.6767H68.0521ZM83.2537 79.842V64.6468H85.3867V79.842H83.2537ZM84.3202 79.842V77.8153H93.0165V79.842H84.3202ZM103.575 79.9999C102.502 79.9999 101.565 79.7679 100.762 79.3039C99.9632 78.84 99.3414 78.1891 98.8967 77.3449C98.4553 76.5007 98.233 75.5212 98.233 74.4V70.0953C98.233 68.9644 98.4553 67.9784 98.8967 67.1407C99.3414 66.303 99.9632 65.6489 100.762 65.1849C101.565 64.7242 102.502 64.4922 103.575 64.4922C104.645 64.4922 105.586 64.7242 106.388 65.1849C107.187 65.6489 107.809 66.303 108.254 67.1407C108.695 67.9784 108.917 68.9644 108.917 70.0953V74.4C108.917 75.5212 108.695 76.5007 108.254 77.3449C107.809 78.1891 107.187 78.84 106.388 79.3039C105.586 79.7679 104.645 79.9999 103.575 79.9999ZM103.575 77.8991C104.529 77.8991 105.292 77.5866 105.869 76.9583C106.443 76.3332 106.73 75.5019 106.73 74.4709V70.018C106.73 68.9805 106.443 68.1492 105.869 67.5274C105.292 66.9055 104.529 66.593 103.575 66.593C102.628 66.593 101.864 66.9055 101.287 67.5274C100.708 68.1492 100.421 68.9805 100.421 70.018V74.4709C100.421 75.5019 100.708 76.3332 101.287 76.9583C101.864 77.5866 102.628 77.8991 103.575 77.8991ZM116.695 73.9489V71.9222H121.551C122.25 71.9222 122.808 71.6806 123.23 71.2005C123.652 70.7172 123.864 70.0921 123.864 69.3091C123.864 68.5133 123.652 67.8786 123.23 67.3985C122.808 66.9152 122.25 66.6767 121.551 66.6767H116.695V64.6468H121.48C122.402 64.6468 123.201 64.8402 123.884 65.23C124.567 65.6135 125.098 66.158 125.475 66.8507C125.859 67.5499 126.046 68.3683 126.046 69.3091C126.046 70.2435 125.859 71.0587 125.475 71.7515C125.098 72.4506 124.567 72.9919 123.884 73.3754C123.201 73.7588 122.402 73.9489 121.48 73.9489H116.695ZM115.597 79.842V64.6468H117.73V79.842H115.597ZM138.615 74.6803L143.077 64.6468H145.072V79.842H142.99V68.465L143.1 69.1319L139.356 77.7316H137.874L134.13 69.3414L134.236 68.465V79.842H132.155V64.6468H134.152L138.615 74.6803ZM152.28 79.842V64.6468H154.413V79.842H152.28ZM153.314 79.842V77.8153H162.042V79.842H153.314ZM153.314 73.3109V71.2843H160.889V73.3109H153.314ZM153.314 66.6767V64.6468H162.042V66.6767H153.314ZM168.512 79.8323V64.6468H170.446L177.876 76.3944L177.627 76.6651V64.6468H179.738V79.8323H177.785L170.375 68.2652L170.626 67.9945V79.8323H168.512ZM189.987 79.842V65.8938H192.117V79.842H189.987ZM185.689 66.6767V64.6468H196.412V66.6767H185.689ZM206.101 79.9999C205.36 79.9999 204.667 79.929 204.013 79.7905C203.362 79.6487 202.753 79.4425 202.183 79.1654C201.616 78.8818 201.084 78.5371 200.591 78.1214L201.919 76.4911C202.495 76.9905 203.136 77.3675 203.829 77.6156C204.525 77.8669 205.282 77.9926 206.101 77.9926C207.199 77.9926 208.05 77.7896 208.656 77.3771C209.262 76.9647 209.568 76.3912 209.568 75.6534V75.6405C209.568 75.0637 209.413 74.6223 209.107 74.313C208.801 74.0069 208.401 73.7781 207.902 73.6299C207.402 73.4785 206.858 73.3593 206.262 73.2594C205.692 73.1627 205.118 73.0467 204.538 72.9146C203.955 72.7825 203.42 72.5731 202.933 72.2928C202.444 72.0092 202.051 71.6032 201.754 71.0748C201.458 70.5464 201.313 69.8376 201.313 68.9515V68.9418C201.313 67.5306 201.783 66.4351 202.721 65.6586C203.662 64.8788 204.989 64.4922 206.706 64.4922C207.518 64.4922 208.318 64.6243 209.094 64.8821C209.877 65.143 210.637 65.5426 211.375 66.0807L210.161 67.7722C209.584 67.3405 209.01 67.0183 208.433 66.8121C207.857 66.6026 207.283 66.4995 206.706 66.4995C205.669 66.4995 204.857 66.7057 204.284 67.1182C203.71 67.5338 203.423 68.1234 203.423 68.8806V68.8935C203.423 69.4638 203.588 69.8988 203.923 70.1984C204.258 70.4981 204.699 70.7172 205.237 70.8622C205.775 71.0039 206.355 71.1393 206.977 71.2649C207.535 71.3745 208.089 71.5098 208.646 71.6677C209.207 71.8223 209.713 72.0479 210.17 72.3443C210.624 72.6407 210.989 73.0467 211.266 73.5622C211.54 74.0778 211.678 74.748 211.678 75.5792V75.6018C211.678 77.0002 211.188 78.086 210.215 78.8528C209.239 79.6197 207.87 79.9999 206.101 79.9999Z" fill="white" fill-opacity="0.4"/>
</svg>
